<svg xmlns="http://www.w3.org/2000/svg" xmlns:xlink="http://www.w3.org/1999/xlink" width="500" zoomAndPan="magnify" viewBox="0 0 375 74.999997" height="100" preserveAspectRatio="xMidYMid meet" version="1.0"><defs><g/><clipPath id="1902020ecc"><path d="M 337.335938 43.984375 L 340.511719 43.984375 L 340.511719 46.96875 L 337.335938 46.96875 Z M 337.335938 43.984375 " clip-rule="nonzero"/></clipPath><clipPath id="01201e1792"><path d="M 315.980469 48.898438 L 361.867188 48.898438 L 361.867188 51.855469 L 315.980469 51.855469 Z M 315.980469 48.898438 " clip-rule="nonzero"/></clipPath></defs><g fill="#000000" fill-opacity="1"><g transform="translate(259.917868, 50.802284)"><g><path d="M 3.296875 -3.296875 L 3.296875 -6.59375 L 0 -6.59375 L 0 -9.890625 L 6.59375 -9.890625 L 6.59375 -6.59375 L 16.5 -6.59375 L 16.5 -26.390625 L 23.09375 -26.390625 L 23.09375 -6.59375 L 19.796875 -6.59375 L 19.796875 -3.296875 Z M 3.296875 -3.296875 "/></g></g></g><g fill="#000000" fill-opacity="1"><g transform="translate(286.309728, 50.802284)"><g><path d="M 3.296875 -3.296875 L 3.296875 -6.59375 L 0 -6.59375 L 0 -26.390625 L 6.59375 -26.390625 L 6.59375 -6.59375 L 16.5 -6.59375 L 16.5 -26.390625 L 23.09375 -26.390625 L 23.09375 -6.59375 L 19.796875 -6.59375 L 19.796875 -3.296875 Z M 3.296875 -3.296875 "/></g></g></g><g fill="#000000" fill-opacity="1"><g transform="translate(312.701589, 50.802284)"><g><path d="M 3.296875 -3.296875 L 3.296875 -26.390625 L 9.890625 -26.390625 L 9.890625 -6.59375 L 23.09375 -6.59375 L 23.09375 -3.296875 Z M 3.296875 -3.296875 "/></g></g></g><g fill="#000000" fill-opacity="1"><g transform="translate(339.093449, 50.802284)"><g><path d="M 9.890625 -23.09375 L 9.890625 -26.390625 L 16.5 -26.390625 L 16.5 -23.09375 Z M 3.296875 -3.296875 L 3.296875 -6.59375 L 9.890625 -6.59375 L 9.890625 -16.5 L 6.59375 -16.5 L 6.59375 -19.796875 L 16.5 -19.796875 L 16.5 -6.59375 L 23.09375 -6.59375 L 23.09375 -3.296875 Z M 3.296875 -3.296875 "/></g></g></g><g clip-path="url(#1902020ecc)"><path fill="#ecbf36" d="M 337.335938 43.984375 L 340.507812 43.984375 L 340.507812 46.96875 L 337.335938 46.96875 Z M 337.335938 43.984375 " fill-opacity="1" fill-rule="nonzero"/></g><g clip-path="url(#01201e1792)"><path fill="#ecbf36" d="M 315.980469 48.898438 L 361.867188 48.898438 L 361.867188 51.855469 L 315.980469 51.855469 Z M 315.980469 48.898438 " fill-opacity="1" fill-rule="nonzero"/></g></svg>