<svg xmlns="http://www.w3.org/2000/svg" xmlns:xlink="http://www.w3.org/1999/xlink" width="500" zoomAndPan="magnify" viewBox="0 0 375 374.999991" height="500" preserveAspectRatio="xMidYMid meet" version="1.0"><defs><g/><clipPath id="463250dd35"><path d="M 347.132812 229.308594 L 366.78125 229.308594 L 366.78125 247.78125 L 347.132812 247.78125 Z M 347.132812 229.308594 " clip-rule="nonzero"/></clipPath><clipPath id="6b8ae5fa19"><path d="M 24.210938 255.851562 L 329.828125 255.851562 L 329.828125 275.550781 L 24.210938 275.550781 Z M 24.210938 255.851562 " clip-rule="nonzero"/></clipPath></defs><g fill="#000000" fill-opacity="1"><g transform="translate(24.071858, 269.868093)"><g><path d="M 20.4375 -20.4375 L 20.4375 -40.859375 L 0 -40.859375 L 0 -61.296875 L 40.859375 -61.296875 L 40.859375 -40.859375 L 102.15625 -40.859375 L 102.15625 -163.4375 L 143.015625 -163.4375 L 143.015625 -40.859375 L 122.578125 -40.859375 L 122.578125 -20.4375 Z M 20.4375 -20.4375 "/></g></g></g><g fill="#000000" fill-opacity="1"><g transform="translate(187.490916, 269.868093)"><g><path d="M 20.4375 -20.4375 L 20.4375 -40.859375 L 0 -40.859375 L 0 -163.4375 L 40.859375 -163.4375 L 40.859375 -40.859375 L 102.15625 -40.859375 L 102.15625 -163.4375 L 143.015625 -163.4375 L 143.015625 -40.859375 L 122.578125 -40.859375 L 122.578125 -20.4375 Z M 20.4375 -20.4375 "/></g></g></g><g clip-path="url(#463250dd35)"><path fill="#ecbf36" d="M 347.132812 229.308594 L 366.757812 229.308594 L 366.757812 247.78125 L 347.132812 247.78125 Z M 347.132812 229.308594 " fill-opacity="1" fill-rule="nonzero"/></g><g clip-path="url(#6b8ae5fa19)"><path fill="#ecbf36" d="M 24.210938 255.851562 L 329.804688 255.851562 L 329.804688 275.550781 L 24.210938 275.550781 Z M 24.210938 255.851562 " fill-opacity="1" fill-rule="nonzero"/></g></svg>