<svg xmlns="http://www.w3.org/2000/svg" xmlns:xlink="http://www.w3.org/1999/xlink" width="1366" zoomAndPan="magnify" viewBox="0 0 1024.5 649.499985" height="866" preserveAspectRatio="xMidYMid meet" version="1.0"><defs><g/><clipPath id="a84a2ad4d0"><path d="M 689.742188 359.429688 L 712.882812 359.429688 L 712.882812 381.1875 L 689.742188 381.1875 Z M 689.742188 359.429688 " clip-rule="nonzero"/></clipPath><clipPath id="46895f7d7c"><path d="M 533.988281 405.6875 L 868.636719 405.6875 L 868.636719 427.253906 L 533.988281 427.253906 Z M 533.988281 405.6875 " clip-rule="nonzero"/></clipPath></defs><g fill="#000000" fill-opacity="1"><g transform="translate(127.070868, 410.409215)"><g><path d="M 24.0625 -24.0625 L 24.0625 -48.109375 L 0 -48.109375 L 0 -72.171875 L 48.109375 -72.171875 L 48.109375 -48.109375 L 120.296875 -48.109375 L 120.296875 -192.46875 L 168.40625 -192.46875 L 168.40625 -48.109375 L 144.34375 -48.109375 L 144.34375 -24.0625 Z M 24.0625 -24.0625 "/></g></g></g><g fill="#000000" fill-opacity="1"><g transform="translate(319.53007, 410.409215)"><g><path d="M 24.0625 -24.0625 L 24.0625 -48.109375 L 0 -48.109375 L 0 -192.46875 L 48.109375 -192.46875 L 48.109375 -48.109375 L 120.296875 -48.109375 L 120.296875 -192.46875 L 168.40625 -192.46875 L 168.40625 -48.109375 L 144.34375 -48.109375 L 144.34375 -24.0625 Z M 24.0625 -24.0625 "/></g></g></g><g fill="#000000" fill-opacity="1"><g transform="translate(511.989272, 410.409215)"><g><path d="M 24.0625 -24.0625 L 24.0625 -192.46875 L 72.171875 -192.46875 L 72.171875 -48.109375 L 168.40625 -48.109375 L 168.40625 -24.0625 Z M 24.0625 -24.0625 "/></g></g></g><g fill="#000000" fill-opacity="1"><g transform="translate(704.448474, 410.409215)"><g><path d="M 72.171875 -168.40625 L 72.171875 -192.46875 L 120.296875 -192.46875 L 120.296875 -168.40625 Z M 24.0625 -24.0625 L 24.0625 -48.109375 L 72.171875 -48.109375 L 72.171875 -120.296875 L 48.109375 -120.296875 L 48.109375 -144.34375 L 120.296875 -144.34375 L 120.296875 -48.109375 L 168.40625 -48.109375 L 168.40625 -24.0625 Z M 24.0625 -24.0625 "/></g></g></g><g clip-path="url(#a84a2ad4d0)"><path fill="#ecbf36" d="M 689.742188 359.429688 L 712.855469 359.429688 L 712.855469 381.1875 L 689.742188 381.1875 Z M 689.742188 359.429688 " fill-opacity="1" fill-rule="nonzero"/></g><g clip-path="url(#46895f7d7c)"><path fill="#ecbf36" d="M 533.988281 405.6875 L 868.617188 405.6875 L 868.617188 427.253906 L 533.988281 427.253906 Z M 533.988281 405.6875 " fill-opacity="1" fill-rule="nonzero"/></g></svg>