<svg xmlns="http://www.w3.org/2000/svg" xmlns:xlink="http://www.w3.org/1999/xlink" width="1366" zoomAndPan="magnify" viewBox="0 0 1024.5 649.499985" height="866" preserveAspectRatio="xMidYMid meet" version="1.0"><defs><g/><clipPath id="ec5377041b"><path d="M 656.4375 361.902344 L 675.242188 361.902344 L 675.242188 379.582031 L 656.4375 379.582031 Z M 656.4375 361.902344 " clip-rule="nonzero"/></clipPath><clipPath id="ed309bfe7b"><path d="M 529.867188 399.492188 L 801.808594 399.492188 L 801.808594 417.015625 L 529.867188 417.015625 Z M 529.867188 399.492188 " clip-rule="nonzero"/></clipPath></defs><g fill="#000000" fill-opacity="1"><g transform="translate(199.199904, 403.328272)"><g><path d="M 19.546875 -19.546875 L 19.546875 -39.09375 L 0 -39.09375 L 0 -58.65625 L 39.09375 -58.65625 L 39.09375 -39.09375 L 97.75 -39.09375 L 97.75 -156.40625 L 136.859375 -156.40625 L 136.859375 -39.09375 L 117.296875 -39.09375 L 117.296875 -19.546875 Z M 19.546875 -19.546875 "/></g></g></g><g fill="#000000" fill-opacity="1"><g transform="translate(355.595582, 403.328272)"><g><path d="M 19.546875 -19.546875 L 19.546875 -39.09375 L 0 -39.09375 L 0 -156.40625 L 39.09375 -156.40625 L 39.09375 -39.09375 L 97.75 -39.09375 L 97.75 -156.40625 L 136.859375 -156.40625 L 136.859375 -39.09375 L 117.296875 -39.09375 L 117.296875 -19.546875 Z M 19.546875 -19.546875 "/></g></g></g><g fill="#000000" fill-opacity="1"><g transform="translate(511.991261, 403.328272)"><g><path d="M 19.546875 -19.546875 L 19.546875 -156.40625 L 58.65625 -156.40625 L 58.65625 -39.09375 L 136.859375 -39.09375 L 136.859375 -19.546875 Z M 19.546875 -19.546875 "/></g></g></g><g fill="#000000" fill-opacity="1"><g transform="translate(668.38694, 403.328272)"><g><path d="M 58.65625 -136.859375 L 58.65625 -156.40625 L 97.75 -156.40625 L 97.75 -136.859375 Z M 19.546875 -19.546875 L 19.546875 -39.09375 L 58.65625 -39.09375 L 58.65625 -97.75 L 39.09375 -97.75 L 39.09375 -117.296875 L 97.75 -117.296875 L 97.75 -39.09375 L 136.859375 -39.09375 L 136.859375 -19.546875 Z M 19.546875 -19.546875 "/></g></g></g><g clip-path="url(#ec5377041b)"><path fill="#ecbf36" d="M 656.4375 361.902344 L 675.21875 361.902344 L 675.21875 379.582031 L 656.4375 379.582031 Z M 656.4375 361.902344 " fill-opacity="1" fill-rule="nonzero"/></g><g clip-path="url(#ed309bfe7b)"><path fill="#ecbf36" d="M 529.867188 399.492188 L 801.792969 399.492188 L 801.792969 417.015625 L 529.867188 417.015625 Z M 529.867188 399.492188 " fill-opacity="1" fill-rule="nonzero"/></g></svg>